# xmcd CD database file
#
# Track frame offsets:
#	150
#	10663
#	26727
#	37859
#	48308
#	60544
#	72282
#	87545
#	101174
#	116549
#	128138
#	143795
#	155019
#	170535
#	189181
#	203123
#	215461
#	232549
#	250707
#	270689
#
# Disc length: 3765 seconds
#
# Revision: 0
# Processed by: cddbd v1.5.1PL0 Copyright (c) Steve Scherf et al.
# Submitted via: CDex 1.51
#
DISCID=0c0eb314
DTITLE=Jane Trojan - Love And Life
DYEAR=1900
DGENRE=New Age
TTITLE0=Toy Shop
TTITLE1=Of Life And Love
TTITLE2=Fleure de Coeur
TTITLE3=Sugar and Spice
TTITLE4=Automn Lullaby
TTITLE5=Gypsy Farewell
TTITLE6=Claireis Serenade
TTITLE7=Flight To The Orient
TTITLE8=Theme From the Pearl Fisheris ( Bizet )
TTITLE9=Prayer for a Friend
TTITLE10=The Other side of Midnight
TTITLE11=River of Time
TTITLE12=Flower of The Oasis
TTITLE13=Theme From Piano Concerto No.1 In E Flat Minor
TTITLE14=Compassionata
TTITLE15=First Walts
TTITLE16=Happy Melody
TTITLE17=Tristesse Piano Solo
TTITLE18=Sylvan Ballad
TTITLE19=Tempest
EXTD=
EXTT0=
EXTT1=
EXTT2=
EXTT3=
EXTT4=
EXTT5=
EXTT6=
EXTT7=
EXTT8=
EXTT9=
EXTT10=
EXTT11=
EXTT12=
EXTT13=
EXTT14=
EXTT15=
EXTT16=
EXTT17=
EXTT18=
EXTT19=
PLAYORDER=
